Making Faces Demo.ufo
<glyph name="A" format="1">
  <advance width="627"/>
  <unicode hex="0041"/>
  <outline>
    <contour>
      <point x="136" y="0" type="line"/>
      <point x="195" y="181" type="line"/>
      <point x="429" y="181" type="line"/>
      <point x="488" y="0" type="line"/>
      <point x="605" y="0" type="line"/>
      <point x="375" y="667" type="line"/>
      <point x="252" y="667" type="line"/>
      <point x="22" y="0" type="line"/>
    </contour>
    <contour>
      <point x="314" y="548" type="line"/>
      <point x="404" y="270" type="line"/>
      <point x="220" y="270" type="line"/>
      <point x="310" y="548" type="line"/>
    </contour>
  </outline>
</glyph>
<glyph name="B" format="1">
  <advance width="632"/>
  <unicode hex="0042"/>
  <outline>
    <contour>
      <point x="88" y="0" type="line"/>
      <point x="349" y="0" type="line" smooth="yes"/>
      <point x="487" y="0"/>
      <point x="581" y="69"/>
      <point x="581" y="188" type="curve" smooth="yes"/>
      <point x="581" y="286"/>
      <point x="519" y="342"/>
      <point x="434" y="351" type="curve"/>
      <point x="434" y="356" type="line"/>
      <point x="501" y="374"/>
      <point x="545" y="423"/>
      <point x="545" y="502" type="curve" smooth="yes"/>
      <point x="545" y="604"/>
      <point x="470" y="667"/>
      <point x="354" y="667" type="curve" smooth="yes"/>
      <point x="88" y="667" type="line"/>
    </contour>
    <contour>
      <point x="198" y="576" type="line"/>
      <point x="330" y="576" type="line" smooth="yes"/>
      <point x="396" y="576"/>
      <point x="435" y="541"/>
      <point x="435" y="483" type="curve" smooth="yes"/>
      <point x="435" y="419"/>
      <point x="391" y="386"/>
      <point x="292" y="386" type="curve" smooth="yes"/>
      <point x="198" y="386" type="line"/>
    </contour>
    <contour>
      <point x="198" y="300" type="line"/>
      <point x="339" y="300" type="line" smooth="yes"/>
      <point x="422" y="300"/>
      <point x="468" y="260"/>
      <point x="468" y="193" type="curve" smooth="yes"/>
      <point x="468" y="124"/>
      <point x="420" y="91"/>
      <point x="304" y="91" type="curve" smooth="yes"/>
      <point x="198" y="91" type="line"/>
    </contour>
  </outline>
</glyph>
<glyph name="C" format="1">
  <advance width="644"/>
  <unicode hex="0043"/>
  <outline>
    <contour>
      <point x="173" y="375" type="line" smooth="yes"/>
      <point x="173" y="504"/>
      <point x="233" y="580"/>
      <point x="334" y="580" type="curve" smooth="yes"/>
      <point x="414" y="580"/>
      <point x="471" y="527"/>
      <point x="478" y="454" type="curve"/>
      <point x="586" y="454" type="line"/>
      <point x="586" y="463" type="line"/>
      <point x="578" y="591"/>
      <point x="474" y="680"/>
      <point x="333" y="680" type="curve" smooth="yes"/>
      <point x="161" y="680"/>
      <point x="61" y="564"/>
      <point x="61" y="376" type="curve" smooth="yes"/>
      <point x="61" y="288" type="line" smooth="yes"/>
      <point x="61" y="99"/>
      <point x="159" y="-13"/>
      <point x="333" y="-13" type="curve" smooth="yes"/>
      <point x="473" y="-13"/>
      <point x="578" y="73"/>
      <point x="586" y="195" type="curve"/>
      <point x="586" y="205" type="line"/>
      <point x="478" y="205" type="line"/>
      <point x="471" y="135"/>
      <point x="416" y="87"/>
      <point x="334" y="87" type="curve" smooth="yes"/>
      <point x="232" y="87"/>
      <point x="173" y="159"/>
      <point x="173" y="288" type="curve" smooth="yes"/>
    </contour>
  </outline>
</glyph>
<glyph name="D" format="1">
  <advance width="666"/>
  <unicode hex="0044"/>
  <outline>
    <contour>
      <point x="88" y="667" type="line"/>
      <point x="88" y="0" type="line"/>
      <point x="318" y="0" type="line" smooth="yes"/>
      <point x="516" y="0"/>
      <point x="613" y="121"/>
      <point x="613" y="334" type="curve" smooth="yes"/>
      <point x="613" y="547"/>
      <point x="517" y="667"/>
      <point x="318" y="667" type="curve" smooth="yes"/>
    </contour>
    <contour>
      <point x="199" y="569" type="line"/>
      <point x="306" y="569" type="line" smooth="yes"/>
      <point x="437" y="569"/>
      <point x="500" y="490"/>
      <point x="500" y="333" type="curve" smooth="yes"/>
      <point x="500" y="175"/>
      <point x="438" y="97"/>
      <point x="306" y="97" type="curve" smooth="yes"/>
      <point x="199" y="97" type="line"/>
    </contour>
  </outline>
</glyph>
<glyph name="E" format="1">
  <advance width="570"/>
  <unicode hex="0045"/>
  <outline>
    <contour>
      <point x="504" y="97" type="line"/>
      <point x="198" y="97" type="line"/>
      <point x="198" y="292" type="line"/>
      <point x="486" y="292" type="line"/>
      <point x="486" y="384" type="line"/>
      <point x="198" y="384" type="line"/>
      <point x="198" y="569" type="line"/>
      <point x="504" y="569" type="line"/>
      <point x="504" y="667" type="line"/>
      <point x="88" y="667" type="line"/>
      <point x="88" y="0" type="line"/>
      <point x="504" y="0" type="line"/>
    </contour>
  </outline>
</glyph>
<glyph name="F" format="1">
  <advance width="539"/>
  <unicode hex="0046"/>
  <outline>
    <contour>
      <point x="199" y="0" type="line"/>
      <point x="199" y="272" type="line"/>
      <point x="473" y="272" type="line"/>
      <point x="473" y="369" type="line"/>
      <point x="199" y="369" type="line"/>
      <point x="199" y="568" type="line"/>
      <point x="499" y="568" type="line"/>
      <point x="499" y="667" type="line"/>
      <point x="88" y="667" type="line"/>
      <point x="88" y="0" type="line"/>
    </contour>
  </outline>
</glyph>
<glyph name="G" format="1">
  <advance width="656"/>
  <unicode hex="0047"/>
  <outline>
    <contour>
      <point x="591" y="474" type="line"/>
      <point x="577" y="589"/>
      <point x="484" y="680"/>
      <point x="338" y="680" type="curve" smooth="yes"/>
      <point x="164" y="680"/>
      <point x="61" y="560"/>
      <point x="61" y="378" type="curve" smooth="yes"/>
      <point x="61" y="292" type="line" smooth="yes"/>
      <point x="61" y="107"/>
      <point x="157" y="-13"/>
      <point x="339" y="-13" type="curve" smooth="yes"/>
      <point x="508" y="-13"/>
      <point x="595" y="92"/>
      <point x="595" y="221" type="curve" smooth="yes"/>
      <point x="595" y="355" type="line"/>
      <point x="335" y="355" type="line"/>
      <point x="335" y="265" type="line"/>
      <point x="488" y="265" type="line"/>
      <point x="488" y="215" type="line" smooth="yes"/>
      <point x="488" y="142"/>
      <point x="438" y="86"/>
      <point x="339" y="86" type="curve" smooth="yes"/>
      <point x="229" y="86"/>
      <point x="173" y="166"/>
      <point x="173" y="292" type="curve" smooth="yes"/>
      <point x="173" y="378" type="line" smooth="yes"/>
      <point x="173" y="505"/>
      <point x="233" y="580"/>
      <point x="336" y="580" type="curve" smooth="yes"/>
      <point x="414" y="580"/>
      <point x="466" y="538"/>
      <point x="481" y="474" type="curve"/>
    </contour>
  </outline>
</glyph>
<glyph name="H" format="1">
  <advance width="703"/>
  <unicode hex="0048"/>
  <outline>
    <contour>
      <point x="615" y="0" type="line"/>
      <point x="615" y="667" type="line"/>
      <point x="504" y="667" type="line"/>
      <point x="504" y="391" type="line"/>
      <point x="199" y="391" type="line"/>
      <point x="199" y="667" type="line"/>
      <point x="88" y="667" type="line"/>
      <point x="88" y="0" type="line"/>
      <point x="199" y="0" type="line"/>
      <point x="199" y="293" type="line"/>
      <point x="504" y="293" type="line"/>
      <point x="504" y="0" type="line"/>
    </contour>
  </outline>
</glyph>
<glyph name="J" format="1">
  <advance width="523"/>
  <unicode hex="004A"/>
  <outline>
    <contour>
      <point x="25" y="178" type="line"/>
      <point x="25" y="72"/>
      <point x="98" y="-13"/>
      <point x="227" y="-13" type="curve" smooth="yes"/>
      <point x="360" y="-13"/>
      <point x="439" y="64"/>
      <point x="439" y="206" type="curve" smooth="yes"/>
      <point x="439" y="667" type="line"/>
      <point x="328" y="667" type="line"/>
      <point x="328" y="201" type="line" smooth="yes"/>
      <point x="328" y="130"/>
      <point x="293" y="91"/>
      <point x="227" y="91" type="curve" smooth="yes"/>
      <point x="172" y="91"/>
      <point x="134" y="126"/>
      <point x="132" y="178" type="curve"/>
    </contour>
  </outline>
</glyph>
<glyph name="K" format="1">
  <advance width="624"/>
  <unicode hex="004B"/>
  <outline>
    <contour>
      <point x="598" y="667" type="line"/>
      <point x="473" y="667" type="line"/>
      <point x="204" y="360" type="line"/>
      <point x="199" y="360" type="line"/>
      <point x="199" y="667" type="line"/>
      <point x="88" y="667" type="line"/>
      <point x="88" y="0" type="line"/>
      <point x="199" y="0" type="line"/>
      <point x="199" y="221" type="line"/>
      <point x="273" y="302" type="line"/>
      <point x="474" y="0" type="line"/>
      <point x="609" y="0" type="line"/>
      <point x="355" y="380" type="line"/>
    </contour>
  </outline>
</glyph>
<glyph name="L" format="1">
  <advance width="517"/>
  <unicode hex="004C"/>
  <outline>
    <contour>
      <point x="492" y="101" type="line"/>
      <point x="199" y="101" type="line"/>
      <point x="199" y="667" type="line"/>
      <point x="88" y="667" type="line"/>
      <point x="88" y="0" type="line"/>
      <point x="492" y="0" type="line"/>
    </contour>
  </outline>
</glyph>
<glyph name="M" format="1">
  <advance width="812"/>
  <unicode hex="004D"/>
  <outline>
    <contour>
      <point x="189" y="0" type="line"/>
      <point x="189" y="458" type="line"/>
      <point x="195" y="458" type="line"/>
      <point x="366" y="74" type="line"/>
      <point x="445" y="74" type="line"/>
      <point x="616" y="458" type="line"/>
      <point x="622" y="458" type="line"/>
      <point x="622" y="0" type="line"/>
      <point x="722" y="0" type="line"/>
      <point x="722" y="667" type="line"/>
      <point x="612" y="667" type="line"/>
      <point x="408" y="205" type="line"/>
      <point x="404" y="205" type="line"/>
      <point x="201" y="667" type="line"/>
      <point x="90" y="667" type="line"/>
      <point x="90" y="0" type="line"/>
    </contour>
  </outline>
</glyph>
<glyph name="N" format="1">
  <advance width="696"/>
  <unicode hex="004E"/>
  <outline>
    <contour>
      <point x="194" y="0" type="line"/>
      <point x="194" y="470" type="line"/>
      <point x="199" y="470" type="line"/>
      <point x="511" y="0" type="line"/>
      <point x="608" y="0" type="line"/>
      <point x="608" y="667" type="line"/>
      <point x="501" y="667" type="line"/>
      <point x="501" y="198" type="line"/>
      <point x="497" y="198" type="line"/>
      <point x="186" y="667" type="line"/>
      <point x="88" y="667" type="line"/>
      <point x="88" y="0" type="line"/>
    </contour>
  </outline>
</glyph>
<glyph name="O" format="1">
  <advance width="676"/>
  <unicode hex="004F"/>
  <outline>
    <contour>
      <point x="503" y="378" type="curve" smooth="yes"/>
      <point x="503" y="288" type="line" smooth="yes"/>
      <point x="503" y="152"/>
      <point x="433" y="85"/>
      <point x="338" y="85" type="curve" smooth="yes"/>
      <point x="243" y="85"/>
      <point x="173" y="152"/>
      <point x="173" y="288" type="curve" smooth="yes"/>
      <point x="173" y="378" type="line" smooth="yes"/>
      <point x="173" y="514"/>
      <point x="243" y="581"/>
      <point x="338" y="581" type="curve" smooth="yes"/>
      <point x="433" y="581"/>
      <point x="503" y="514"/>
    </contour>
    <contour>
      <point x="615" y="288" type="curve" smooth="yes"/>
      <point x="615" y="377" type="line" smooth="yes"/>
      <point x="615" y="566"/>
      <point x="509" y="680"/>
      <point x="338" y="680" type="curve" smooth="yes"/>
      <point x="167" y="680"/>
      <point x="61" y="567"/>
      <point x="61" y="377" type="curve" smooth="yes"/>
      <point x="61" y="288" type="line" smooth="yes"/>
      <point x="61" y="100"/>
      <point x="167" y="-13"/>
      <point x="338" y="-13" type="curve" smooth="yes"/>
      <point x="509" y="-13"/>
      <point x="615" y="100"/>
    </contour>
  </outline>
</glyph>
<glyph name="P" format="1">
  <advance width="600"/>
  <unicode hex="0050"/>
  <outline>
    <contour>
      <point x="344" y="667" type="curve" smooth="yes"/>
      <point x="88" y="667" type="line"/>
      <point x="88" y="0" type="line"/>
      <point x="199" y="0" type="line"/>
      <point x="199" y="233" type="line"/>
      <point x="343" y="233" type="line" smooth="yes"/>
      <point x="479" y="233"/>
      <point x="563" y="324"/>
      <point x="563" y="449" type="curve" smooth="yes"/>
      <point x="563" y="573"/>
      <point x="480" y="667"/>
    </contour>
    <contour>
      <point x="450" y="449" type="curve" smooth="yes"/>
      <point x="450" y="372"/>
      <point x="404" y="327"/>
      <point x="327" y="327" type="curve" smooth="yes"/>
      <point x="198" y="327" type="line"/>
      <point x="198" y="571" type="line"/>
      <point x="327" y="571" type="line" smooth="yes"/>
      <point x="404" y="571"/>
      <point x="450" y="527"/>
    </contour>
  </outline>
</glyph>
<glyph name="Q" format="1">
  <advance width="678"/>
  <unicode hex="0051"/>
  <outline>
    <contour>
      <point x="616" y="-69" type="line"/>
      <point x="528" y="55" type="line"/>
      <point x="585" y="108"/>
      <point x="616" y="189"/>
      <point x="616" y="289" type="curve" smooth="yes"/>
      <point x="616" y="377" type="line" smooth="yes"/>
      <point x="616" y="562"/>
      <point x="511" y="680"/>
      <point x="339" y="680" type="curve" smooth="yes"/>
      <point x="167" y="680"/>
      <point x="62" y="563"/>
      <point x="62" y="377" type="curve" smooth="yes"/>
      <point x="62" y="289" type="line" smooth="yes"/>
      <point x="62" y="104"/>
      <point x="167" y="-13"/>
      <point x="339" y="-13" type="curve" smooth="yes"/>
      <point x="378" y="-13"/>
      <point x="414" y="-7"/>
      <point x="446" y="5" type="curve"/>
      <point x="500" y="-69" type="line"/>
    </contour>
    <contour>
      <point x="171" y="287" type="curve" smooth="yes"/>
      <point x="171" y="378" type="line" smooth="yes"/>
      <point x="171" y="505"/>
      <point x="236" y="581"/>
      <point x="339" y="581" type="curve" smooth="yes"/>
      <point x="442" y="581"/>
      <point x="506" y="505"/>
      <point x="506" y="378" type="curve" smooth="yes"/>
      <point x="506" y="287" type="line" smooth="yes"/>
      <point x="506" y="228"/>
      <point x="492" y="179"/>
      <point x="464" y="145" type="curve"/>
      <point x="419" y="203" type="line"/>
      <point x="309" y="203" type="line"/>
      <point x="391" y="89" type="line"/>
      <point x="375" y="83"/>
      <point x="357" y="80"/>
      <point x="337" y="80" type="curve" smooth="yes"/>
      <point x="234" y="81"/>
      <point x="171" y="157"/>
    </contour>
  </outline>
</glyph>
<glyph name="R" format="1">
  <advance width="631"/>
  <unicode hex="0052"/>
  <outline>
    <contour>
      <point x="343" y="667" type="curve" smooth="yes"/>
      <point x="88" y="667" type="line"/>
      <point x="88" y="0" type="line"/>
      <point x="197" y="0" type="line"/>
      <point x="197" y="254" type="line"/>
      <point x="335" y="254" type="line"/>
      <point x="455" y="0" type="line"/>
      <point x="580" y="0" type="line"/>
      <point x="445" y="273" type="line"/>
      <point x="513" y="298"/>
      <point x="567" y="364"/>
      <point x="567" y="459" type="curve" smooth="yes"/>
      <point x="567" y="585"/>
      <point x="483" y="667"/>
    </contour>
    <contour>
      <point x="197" y="345" type="line"/>
      <point x="197" y="572" type="line"/>
      <point x="327" y="572" type="line" smooth="yes"/>
      <point x="404" y="572"/>
      <point x="453" y="531"/>
      <point x="453" y="456" type="curve" smooth="yes"/>
      <point x="453" y="383"/>
      <point x="406" y="345"/>
      <point x="324" y="345" type="curve" smooth="yes"/>
    </contour>
  </outline>
</glyph>
<glyph name="S" format="1">
  <advance width="604"/>
  <unicode hex="0053"/>
  <outline>
    <contour>
      <point x="43" y="177" type="line"/>
      <point x="51" y="71"/>
      <point x="137" y="-13"/>
      <point x="292" y="-13" type="curve" smooth="yes"/>
      <point x="454" y="-13"/>
      <point x="549" y="70"/>
      <point x="549" y="193" type="curve" smooth="yes"/>
      <point x="549" y="299"/>
      <point x="485" y="352"/>
      <point x="373" y="378" type="curve" smooth="yes"/>
      <point x="264" y="405" type="line" smooth="yes"/>
      <point x="204" y="418"/>
      <point x="171" y="447"/>
      <point x="171" y="490" type="curve" smooth="yes"/>
      <point x="171" y="546"/>
      <point x="221" y="586"/>
      <point x="300" y="586" type="curve" smooth="yes"/>
      <point x="374" y="586"/>
      <point x="422" y="550"/>
      <point x="433" y="498" type="curve"/>
      <point x="540" y="498" type="line"/>
      <point x="532" y="600"/>
      <point x="443" y="681"/>
      <point x="301" y="681" type="curve" smooth="yes"/>
      <point x="160" y="681"/>
      <point x="60" y="601"/>
      <point x="60" y="482" type="curve" smooth="yes"/>
      <point x="60" y="386"/>
      <point x="122" y="326"/>
      <point x="223" y="302" type="curve" smooth="yes"/>
      <point x="333" y="275" type="line" smooth="yes"/>
      <point x="405" y="258"/>
      <point x="438" y="231"/>
      <point x="438" y="182" type="curve" smooth="yes"/>
      <point x="438" y="122"/>
      <point x="388" y="82"/>
      <point x="300" y="82" type="curve" smooth="yes"/>
      <point x="218" y="82"/>
      <point x="163" y="121"/>
      <point x="152" y="177" type="curve"/>
    </contour>
  </outline>
</glyph>
<glyph name="T" format="1">
  <advance width="544"/>
  <unicode hex="0054"/>
  <outline>
    <contour>
      <point x="328" y="0" type="line"/>
      <point x="328" y="567" type="line"/>
      <point x="523" y="567" type="line"/>
      <point x="523" y="667" type="line"/>
      <point x="22" y="667" type="line"/>
      <point x="22" y="567" type="line"/>
      <point x="217" y="567" type="line"/>
      <point x="217" y="0" type="line"/>
    </contour>
  </outline>
</glyph>
<glyph name="U" format="1">
  <advance width="684"/>
  <unicode hex="0055"/>
  <outline>
    <contour>
      <point x="342" y="87" type="curve" smooth="yes"/>
      <point x="250" y="87"/>
      <point x="191" y="143"/>
      <point x="191" y="239" type="curve" smooth="yes"/>
      <point x="191" y="667" type="line"/>
      <point x="80" y="667" type="line"/>
      <point x="80" y="230" type="line" smooth="yes"/>
      <point x="80" y="84"/>
      <point x="184" y="-13"/>
      <point x="342" y="-13" type="curve" smooth="yes"/>
      <point x="500" y="-13"/>
      <point x="604" y="84"/>
      <point x="604" y="230" type="curve" smooth="yes"/>
      <point x="604" y="667" type="line"/>
      <point x="493" y="667" type="line"/>
      <point x="493" y="239" type="line" smooth="yes"/>
      <point x="493" y="143"/>
      <point x="433" y="87"/>
    </contour>
  </outline>
</glyph>
<glyph name="V" format="1">
  <advance width="625.0"/>
  <unicode hex="0056"/>
  <outline>
    <contour>
      <point x="250" y="0" type="line"/>
      <point x="376" y="0" type="line"/>
      <point x="606" y="667" type="line"/>
      <point x="482" y="667" type="line"/>
      <point x="317" y="130" type="line"/>
      <point x="312" y="130" type="line"/>
      <point x="146" y="667" type="line"/>
      <point x="19" y="667" type="line"/>
    </contour>
  </outline>
</glyph>
<glyph name="W" format="1">
  <advance width="863"/>
  <unicode hex="0057"/>
  <outline>
    <contour>
      <point x="298" y="0" type="line"/>
      <point x="429" y="486" type="line"/>
      <point x="434" y="486" type="line"/>
      <point x="565" y="0" type="line"/>
      <point x="666" y="0" type="line"/>
      <point x="845" y="667" type="line"/>
      <point x="722" y="667" type="line"/>
      <point x="612" y="166" type="line"/>
      <point x="606" y="166" type="line"/>
      <point x="482" y="667" type="line"/>
      <point x="381" y="667" type="line"/>
      <point x="257" y="166" type="line"/>
      <point x="251" y="166" type="line"/>
      <point x="141" y="667" type="line"/>
      <point x="18" y="667" type="line"/>
      <point x="197" y="0" type="line"/>
    </contour>
  </outline>
</glyph>
<glyph name="X" format="1">
  <advance width="591"/>
  <unicode hex="0058"/>
  <outline>
    <contour>
      <point x="580" y="667" type="line"/>
      <point x="455" y="667" type="line"/>
      <point x="304" y="419" type="line"/>
      <point x="299" y="419" type="line"/>
      <point x="147" y="667" type="line"/>
      <point x="16" y="667" type="line"/>
      <point x="225" y="336" type="line"/>
      <point x="13" y="0" type="line"/>
      <point x="135" y="0" type="line"/>
      <point x="289" y="245" type="line"/>
      <point x="294" y="245" type="line"/>
      <point x="447" y="0" type="line"/>
      <point x="577" y="0" type="line"/>
      <point x="364" y="332" type="line"/>
    </contour>
  </outline>
</glyph>
<glyph name="Y" format="1">
  <advance width="574"/>
  <unicode hex="0059"/>
  <outline>
    <contour>
      <point x="342" y="0" type="line"/>
      <point x="342" y="266" type="line"/>
      <point x="565" y="667" type="line"/>
      <point x="444" y="667" type="line"/>
      <point x="291" y="379" type="line"/>
      <point x="286" y="379" type="line"/>
      <point x="133" y="667" type="line"/>
      <point x="9" y="667" type="line"/>
      <point x="232" y="264" type="line"/>
      <point x="232" y="0" type="line"/>
    </contour>
  </outline>
</glyph>
<glyph name="Z" format="1">
  <advance width="594"/>
  <unicode hex="005A"/>
  <outline>
    <contour>
      <point x="54" y="0" type="line"/>
      <point x="536" y="0" type="line"/>
      <point x="536" y="98" type="line"/>
      <point x="190" y="98" type="line"/>
      <point x="190" y="104" type="line"/>
      <point x="527" y="589" type="line"/>
      <point x="527" y="667" type="line"/>
      <point x="64" y="667" type="line"/>
      <point x="64" y="569" type="line"/>
      <point x="392" y="569" type="line"/>
      <point x="392" y="563" type="line"/>
      <point x="54" y="78" type="line"/>
    </contour>
  </outline>
</glyph>
<glyph name="a" format="1">
  <advance width="553"/>
  <unicode hex="0061"/>
  <outline>
    <contour>
      <point x="223" y="-8" type="curve" smooth="yes"/>
      <point x="299" y="-8"/>
      <point x="344" y="27"/>
      <point x="367" y="66" type="curve"/>
      <point x="372" y="66" type="line"/>
      <point x="372" y="0" type="line"/>
      <point x="475" y="0" type="line"/>
      <point x="475" y="349" type="line" smooth="yes"/>
      <point x="475" y="479"/>
      <point x="383" y="524"/>
      <point x="273" y="524" type="curve" smooth="yes"/>
      <point x="145" y="524"/>
      <point x="80" y="463"/>
      <point x="73" y="378" type="curve"/>
      <point x="176" y="378" type="line"/>
      <point x="185" y="411"/>
      <point x="211" y="435"/>
      <point x="270" y="435" type="curve" smooth="yes"/>
      <point x="329" y="435"/>
      <point x="367" y="408"/>
      <point x="367" y="351" type="curve" smooth="yes"/>
      <point x="367" y="303" type="line"/>
      <point x="236" y="303" type="line" smooth="yes"/>
      <point x="117" y="303"/>
      <point x="54" y="242"/>
      <point x="54" y="150" type="curve" smooth="yes"/>
      <point x="54" y="53"/>
      <point x="123" y="-8"/>
    </contour>
    <contour>
      <point x="256" y="79" type="curve" smooth="yes"/>
      <point x="208" y="79"/>
      <point x="163" y="104"/>
      <point x="163" y="156" type="curve" smooth="yes"/>
      <point x="163" y="198"/>
      <point x="190" y="229"/>
      <point x="253" y="229" type="curve" smooth="yes"/>
      <point x="367" y="229" type="line"/>
      <point x="367" y="174" type="line" smooth="yes"/>
      <point x="367" y="120"/>
      <point x="318" y="79"/>
    </contour>
  </outline>
</glyph>
<glyph name="b" format="1">
  <advance width="600"/>
  <unicode hex="0062"/>
  <outline>
    <contour>
      <point x="345" y="-7" type="curve" smooth="yes"/>
      <point x="467" y="-7"/>
      <point x="542" y="79"/>
      <point x="542" y="220" type="curve" smooth="yes"/>
      <point x="542" y="297" type="line" smooth="yes"/>
      <point x="542" y="438"/>
      <point x="468" y="523"/>
      <point x="347" y="523" type="curve" smooth="yes"/>
      <point x="273" y="523"/>
      <point x="213" y="488"/>
      <point x="197" y="435" type="curve"/>
      <point x="191" y="435" type="line"/>
      <point x="191" y="715" type="line"/>
      <point x="83" y="715" type="line"/>
      <point x="83" y="0" type="line"/>
      <point x="188" y="0" type="line"/>
      <point x="188" y="78" type="line"/>
      <point x="194" y="78" type="line"/>
      <point x="216" y="25"/>
      <point x="272" y="-7"/>
    </contour>
    <contour>
      <point x="315" y="85" type="curve" smooth="yes"/>
      <point x="242" y="85"/>
      <point x="191" y="140"/>
      <point x="191" y="218" type="curve" smooth="yes"/>
      <point x="191" y="290" type="line" smooth="yes"/>
      <point x="191" y="377"/>
      <point x="238" y="431"/>
      <point x="313" y="431" type="curve" smooth="yes"/>
      <point x="388" y="431"/>
      <point x="432" y="376"/>
      <point x="432" y="281" type="curve" smooth="yes"/>
      <point x="432" y="233" type="line" smooth="yes"/>
      <point x="432" y="140"/>
      <point x="389" y="85"/>
    </contour>
  </outline>
</glyph>
<glyph name="c" format="1">
  <advance width="538"/>
  <unicode hex="0063"/>
  <outline>
    <contour>
      <point x="57" y="224" type="line" smooth="yes"/>
      <point x="57" y="80"/>
      <point x="142" y="-9"/>
      <point x="280" y="-9" type="curve" smooth="yes"/>
      <point x="418" y="-9"/>
      <point x="485" y="68"/>
      <point x="488" y="158" type="curve"/>
      <point x="386" y="158" type="line"/>
      <point x="378" y="117"/>
      <point x="352" y="84"/>
      <point x="283" y="84" type="curve" smooth="yes"/>
      <point x="209" y="84"/>
      <point x="166" y="138"/>
      <point x="166" y="224" type="curve" smooth="yes"/>
      <point x="166" y="293" type="line" smooth="yes"/>
      <point x="166" y="377"/>
      <point x="207" y="432"/>
      <point x="282" y="432" type="curve" smooth="yes"/>
      <point x="354" y="432"/>
      <point x="378" y="387"/>
      <point x="383" y="354" type="curve"/>
      <point x="485" y="354" type="line"/>
      <point x="483" y="444"/>
      <point x="412" y="525"/>
      <point x="280" y="525" type="curve" smooth="yes"/>
      <point x="143" y="525"/>
      <point x="57" y="435"/>
      <point x="57" y="296" type="curve" smooth="yes"/>
    </contour>
  </outline>
</glyph>
<glyph name="d" format="1">
  <advance width="601"/>
  <unicode hex="0064"/>
  <outline>
    <contour>
      <point x="255" y="523" type="curve" smooth="yes"/>
      <point x="136" y="523"/>
      <point x="58" y="439"/>
      <point x="58" y="301" type="curve" smooth="yes"/>
      <point x="58" y="216" type="line" smooth="yes"/>
      <point x="58" y="78"/>
      <point x="135" y="-7"/>
      <point x="253" y="-7" type="curve" smooth="yes"/>
      <point x="329" y="-7"/>
      <point x="391" y="30"/>
      <point x="406" y="83" type="curve"/>
      <point x="412" y="83" type="line"/>
      <point x="412" y="0" type="line"/>
      <point x="517" y="0" type="line"/>
      <point x="517" y="715" type="line"/>
      <point x="409" y="715" type="line"/>
      <point x="409" y="439" type="line"/>
      <point x="403" y="439" type="line"/>
      <point x="383" y="491"/>
      <point x="328" y="523"/>
    </contour>
    <contour>
      <point x="285" y="431" type="curve" smooth="yes"/>
      <point x="356" y="431"/>
      <point x="409" y="379"/>
      <point x="409" y="300" type="curve" smooth="yes"/>
      <point x="409" y="225" type="line" smooth="yes"/>
      <point x="409" y="138"/>
      <point x="361" y="86"/>
      <point x="288" y="86" type="curve" smooth="yes"/>
      <point x="213" y="86"/>
      <point x="168" y="138"/>
      <point x="168" y="231" type="curve" smooth="yes"/>
      <point x="168" y="286" type="line" smooth="yes"/>
      <point x="168" y="378"/>
      <point x="213" y="431"/>
    </contour>
  </outline>
</glyph>
<glyph name="e" format="1">
  <advance width="555"/>
  <unicode hex="0065"/>
  <outline>
    <contour>
      <point x="285" y="-9" type="curve" smooth="yes"/>
      <point x="424" y="-9"/>
      <point x="487" y="79"/>
      <point x="494" y="140" type="curve"/>
      <point x="388" y="140" type="line"/>
      <point x="380" y="108"/>
      <point x="341" y="81"/>
      <point x="285" y="81" type="curve" smooth="yes"/>
      <point x="208" y="81"/>
      <point x="165" y="134"/>
      <point x="165" y="207" type="curve" smooth="yes"/>
      <point x="165" y="232" type="line"/>
      <point x="500" y="232" type="line"/>
      <point x="500" y="292" type="line" smooth="yes"/>
      <point x="500" y="436"/>
      <point x="408" y="525"/>
      <point x="279" y="525" type="curve" smooth="yes"/>
      <point x="153" y="525"/>
      <point x="57" y="440"/>
      <point x="57" y="292" type="curve" smooth="yes"/>
      <point x="57" y="225" type="line" smooth="yes"/>
      <point x="57" y="77"/>
      <point x="145" y="-9"/>
    </contour>
    <contour>
      <point x="165" y="305" type="line"/>
      <point x="165" y="311" type="line" smooth="yes"/>
      <point x="165" y="387"/>
      <point x="210" y="437"/>
      <point x="279" y="437" type="curve" smooth="yes"/>
      <point x="348" y="437"/>
      <point x="394" y="387"/>
      <point x="394" y="311" type="curve" smooth="yes"/>
      <point x="394" y="305" type="line"/>
    </contour>
  </outline>
</glyph>
<glyph name="f" format="1">
  <advance width="401"/>
  <unicode hex="0066"/>
  <outline>
    <contour>
      <point x="126" y="0" type="line"/>
      <point x="234" y="0" type="line"/>
      <point x="234" y="424" type="line"/>
      <point x="351" y="424" type="line"/>
      <point x="351" y="513" type="line"/>
      <point x="233" y="513" type="line"/>
      <point x="233" y="555" type="line" smooth="yes"/>
      <point x="233" y="607"/>
      <point x="257" y="624"/>
      <point x="314" y="624" type="curve" smooth="yes"/>
      <point x="328" y="624"/>
      <point x="353" y="623"/>
      <point x="361" y="622" type="curve"/>
      <point x="361" y="706" type="line"/>
      <point x="349" y="708"/>
      <point x="320" y="710"/>
      <point x="296" y="710" type="curve" smooth="yes"/>
      <point x="175" y="710"/>
      <point x="126" y="666"/>
      <point x="126" y="564" type="curve" smooth="yes"/>
      <point x="126" y="513" type="line"/>
      <point x="41" y="513" type="line"/>
      <point x="41" y="424" type="line"/>
      <point x="126" y="424" type="line"/>
    </contour>
  </outline>
</glyph>
<glyph name="g" format="1">
  <advance width="585"/>
  <unicode hex="0067"/>
  <outline>
    <contour>
      <point x="279" y="-105" type="curve" smooth="yes"/>
      <point x="218" y="-105"/>
      <point x="178" y="-80"/>
      <point x="171" y="-45" type="curve"/>
      <point x="64" y="-45" type="line"/>
      <point x="70" y="-124"/>
      <point x="134" y="-192"/>
      <point x="275" y="-192" type="curve" smooth="yes"/>
      <point x="406" y="-192"/>
      <point x="511" y="-136"/>
      <point x="511" y="9" type="curve" smooth="yes"/>
      <point x="511" y="517" type="line"/>
      <point x="406" y="517" type="line"/>
      <point x="406" y="438" type="line"/>
      <point x="400" y="438" type="line"/>
      <point x="383" y="482"/>
      <point x="329" y="523"/>
      <point x="252" y="523" type="curve" smooth="yes"/>
      <point x="138" y="523"/>
      <point x="53" y="441"/>
      <point x="53" y="299" type="curve" smooth="yes"/>
      <point x="53" y="234" type="line" smooth="yes"/>
      <point x="53" y="91"/>
      <point x="139" y="10"/>
      <point x="252" y="10" type="curve" smooth="yes"/>
      <point x="325" y="10"/>
      <point x="377" y="45"/>
      <point x="397" y="90" type="curve"/>
      <point x="403" y="90" type="line"/>
      <point x="403" y="14" type="line" smooth="yes"/>
      <point x="403" y="-61"/>
      <point x="362" y="-105"/>
    </contour>
    <contour>
      <point x="286" y="431" type="curve" smooth="yes"/>
      <point x="359" y="431"/>
      <point x="403" y="371"/>
      <point x="403" y="296" type="curve" smooth="yes"/>
      <point x="403" y="230" type="line" smooth="yes"/>
      <point x="403" y="158"/>
      <point x="361" y="98"/>
      <point x="287" y="98" type="curve" smooth="yes"/>
      <point x="214" y="98"/>
      <point x="163" y="154"/>
      <point x="163" y="242" type="curve" smooth="yes"/>
      <point x="163" y="286" type="line" smooth="yes"/>
      <point x="163" y="375"/>
      <point x="210" y="431"/>
    </contour>
  </outline>
</glyph>
<glyph name="h" format="1">
  <advance width="604"/>
  <unicode hex="0068"/>
  <outline>
    <contour>
      <point x="83" y="0" type="line"/>
      <point x="191" y="0" type="line"/>
      <point x="191" y="287" type="line" smooth="yes"/>
      <point x="191" y="369"/>
      <point x="235" y="428"/>
      <point x="313" y="428" type="curve" smooth="yes"/>
      <point x="375" y="428"/>
      <point x="418" y="393"/>
      <point x="418" y="315" type="curve" smooth="yes"/>
      <point x="418" y="0" type="line"/>
      <point x="526" y="0" type="line"/>
      <point x="526" y="348" type="line" smooth="yes"/>
      <point x="526" y="466"/>
      <point x="454" y="524"/>
      <point x="354" y="524" type="curve" smooth="yes"/>
      <point x="250" y="524"/>
      <point x="208" y="461"/>
      <point x="197" y="424" type="curve"/>
      <point x="191" y="424" type="line"/>
      <point x="191" y="715" type="line"/>
      <point x="83" y="715" type="line"/>
    </contour>
  </outline>
</glyph>
<glyph name="i" format="1">
  <advance width="293"/>
  <unicode hex="0069"/>
  <outline>
    <contour>
      <point x="93" y="0" type="line"/>
      <point x="201" y="0" type="line"/>
      <point x="201" y="517" type="line"/>
      <point x="93" y="517" type="line"/>
    </contour>
    <contour>
      <point x="75" y="671" type="curve" smooth="yes"/>
      <point x="75" y="632"/>
      <point x="105" y="604"/>
      <point x="146" y="604" type="curve" smooth="yes"/>
      <point x="189" y="604"/>
      <point x="219" y="632"/>
      <point x="219" y="671" type="curve" smooth="yes"/>
      <point x="219" y="711"/>
      <point x="189" y="739"/>
      <point x="146" y="739" type="curve" smooth="yes"/>
      <point x="105" y="739"/>
      <point x="75" y="711"/>
    </contour>
  </outline>
</glyph>
<glyph name="j" format="1">
  <advance width="293"/>
  <unicode hex="006A"/>
  <outline>
    <contour>
      <point x="75" y="671" type="curve" smooth="yes"/>
      <point x="75" y="632"/>
      <point x="105" y="604"/>
      <point x="146" y="604" type="curve" smooth="yes"/>
      <point x="189" y="604"/>
      <point x="219" y="632"/>
      <point x="219" y="671" type="curve" smooth="yes"/>
      <point x="219" y="711"/>
      <point x="189" y="739"/>
      <point x="146" y="739" type="curve" smooth="yes"/>
      <point x="105" y="739"/>
      <point x="75" y="711"/>
    </contour>
    <contour>
      <point x="201" y="517" type="line"/>
      <point x="93" y="517" type="line"/>
      <point x="93" y="-9" type="line" smooth="yes"/>
      <point x="93" y="-67"/>
      <point x="74" y="-94"/>
      <point x="23" y="-94" type="curve" smooth="yes"/>
      <point x="13" y="-94"/>
      <point x="0" y="-93"/>
      <point x="-7" y="-92" type="curve"/>
      <point x="-7" y="-176" type="line"/>
      <point x="1" y="-178"/>
      <point x="27" y="-180"/>
      <point x="44" y="-180" type="curve" smooth="yes"/>
      <point x="143" y="-180"/>
      <point x="201" y="-127"/>
      <point x="201" y="-10" type="curve" smooth="yes"/>
    </contour>
  </outline>
</glyph>
<glyph name="k" format="1">
  <advance width="543"/>
  <unicode hex="006B"/>
  <outline>
    <contour>
      <point x="191" y="184" type="line"/>
      <point x="233" y="227" type="line"/>
      <point x="395" y="0" type="line"/>
      <point x="522" y="0" type="line"/>
      <point x="314" y="293" type="line"/>
      <point x="509" y="517" type="line"/>
      <point x="386" y="517" type="line"/>
      <point x="196" y="295" type="line"/>
      <point x="191" y="295" type="line"/>
      <point x="191" y="715" type="line"/>
      <point x="83" y="715" type="line"/>
      <point x="83" y="0" type="line"/>
      <point x="191" y="0" type="line"/>
    </contour>
  </outline>
</glyph>
<glyph name="l" format="1">
  <advance width="279"/>
  <unicode hex="006C"/>
  <outline>
    <contour>
      <point x="85" y="0" type="line"/>
      <point x="193" y="0" type="line"/>
      <point x="193" y="715" type="line"/>
      <point x="85" y="715" type="line"/>
    </contour>
  </outline>
</glyph>
<glyph name="m" format="1">
  <advance width="885"/>
  <unicode hex="006D"/>
  <outline>
    <contour>
      <point x="82" y="0" type="line"/>
      <point x="190" y="0" type="line"/>
      <point x="190" y="320" type="line" smooth="yes"/>
      <point x="190" y="388"/>
      <point x="233" y="430"/>
      <point x="292" y="430" type="curve" smooth="yes"/>
      <point x="351" y="430"/>
      <point x="391" y="392"/>
      <point x="391" y="325" type="curve" smooth="yes"/>
      <point x="391" y="0" type="line"/>
      <point x="497" y="0" type="line"/>
      <point x="497" y="319" type="line" smooth="yes"/>
      <point x="497" y="387"/>
      <point x="542" y="430"/>
      <point x="600" y="430" type="curve" smooth="yes"/>
      <point x="662" y="430"/>
      <point x="698" y="393"/>
      <point x="698" y="328" type="curve" smooth="yes"/>
      <point x="698" y="0" type="line"/>
      <point x="806" y="0" type="line"/>
      <point x="806" y="362" type="line" smooth="yes"/>
      <point x="806" y="464"/>
      <point x="743" y="524"/>
      <point x="638" y="524" type="curve" smooth="yes"/>
      <point x="550" y="524"/>
      <point x="500" y="476"/>
      <point x="481" y="428" type="curve"/>
      <point x="477" y="428" type="line"/>
      <point x="460" y="483"/>
      <point x="412" y="524"/>
      <point x="334" y="524" type="curve" smooth="yes"/>
      <point x="240" y="524"/>
      <point x="205" y="470"/>
      <point x="193" y="433" type="curve"/>
      <point x="188" y="433" type="line"/>
      <point x="188" y="517" type="line"/>
      <point x="82" y="517" type="line"/>
    </contour>
  </outline>
</glyph>
<glyph name="n" format="1">
  <advance width="602"/>
  <unicode hex="006E"/>
  <outline>
    <contour>
      <point x="82" y="0" type="line"/>
      <point x="190" y="0" type="line"/>
      <point x="190" y="287" type="line" smooth="yes"/>
      <point x="190" y="369"/>
      <point x="232" y="428"/>
      <point x="312" y="428" type="curve" smooth="yes"/>
      <point x="373" y="428"/>
      <point x="414" y="394"/>
      <point x="414" y="315" type="curve" smooth="yes"/>
      <point x="414" y="0" type="line"/>
      <point x="522" y="0" type="line"/>
      <point x="522" y="348" type="line" smooth="yes"/>
      <point x="522" y="467"/>
      <point x="453" y="524"/>
      <point x="349" y="524" type="curve" smooth="yes"/>
      <point x="244" y="524"/>
      <point x="207" y="465"/>
      <point x="193" y="424" type="curve"/>
      <point x="188" y="424" type="line"/>
      <point x="188" y="517" type="line"/>
      <point x="82" y="517" type="line"/>
    </contour>
  </outline>
</glyph>
<glyph name="o" format="1">
  <advance width="574"/>
  <unicode hex="006F"/>
  <outline>
    <contour>
      <point x="287" y="525" type="curve" smooth="yes"/>
      <point x="152" y="525"/>
      <point x="57" y="433"/>
      <point x="57" y="291" type="curve" smooth="yes"/>
      <point x="57" y="227" type="line" smooth="yes"/>
      <point x="57" y="75"/>
      <point x="150" y="-9"/>
      <point x="287" y="-9" type="curve" smooth="yes"/>
      <point x="422" y="-9"/>
      <point x="516" y="76"/>
      <point x="516" y="227" type="curve" smooth="yes"/>
      <point x="516" y="292" type="line" smooth="yes"/>
      <point x="516" y="437"/>
      <point x="422" y="525"/>
    </contour>
    <contour>
      <point x="288" y="435" type="curve" smooth="yes"/>
      <point x="365" y="435"/>
      <point x="407" y="371"/>
      <point x="407" y="287" type="curve" smooth="yes"/>
      <point x="407" y="230" type="line" smooth="yes"/>
      <point x="407" y="146"/>
      <point x="367" y="82"/>
      <point x="288" y="82" type="curve" smooth="yes"/>
      <point x="208" y="82"/>
      <point x="167" y="146"/>
      <point x="167" y="230" type="curve" smooth="yes"/>
      <point x="167" y="287" type="line" smooth="yes"/>
      <point x="167" y="371"/>
      <point x="210" y="435"/>
    </contour>
  </outline>
</glyph>
<glyph name="p" format="1">
  <advance width="599"/>
  <unicode hex="0070"/>
  <outline>
    <contour>
      <point x="343" y="-7" type="curve" smooth="yes"/>
      <point x="465" y="-7"/>
      <point x="540" y="79"/>
      <point x="540" y="220" type="curve" smooth="yes"/>
      <point x="540" y="297" type="line" smooth="yes"/>
      <point x="540" y="438"/>
      <point x="466" y="523"/>
      <point x="346" y="523" type="curve" smooth="yes"/>
      <point x="272" y="523"/>
      <point x="214" y="490"/>
      <point x="193" y="435" type="curve"/>
      <point x="188" y="435" type="line"/>
      <point x="188" y="517" type="line"/>
      <point x="82" y="517" type="line"/>
      <point x="82" y="-175" type="line"/>
      <point x="190" y="-175" type="line"/>
      <point x="190" y="78" type="line"/>
      <point x="196" y="78" type="line"/>
      <point x="219" y="23"/>
      <point x="272" y="-7"/>
    </contour>
    <contour>
      <point x="313" y="85" type="curve" smooth="yes"/>
      <point x="240" y="85"/>
      <point x="190" y="138"/>
      <point x="190" y="217" type="curve" smooth="yes"/>
      <point x="190" y="292" type="line" smooth="yes"/>
      <point x="190" y="378"/>
      <point x="236" y="431"/>
      <point x="311" y="431" type="curve" smooth="yes"/>
      <point x="387" y="431"/>
      <point x="430" y="377"/>
      <point x="430" y="282" type="curve" smooth="yes"/>
      <point x="430" y="233" type="line" smooth="yes"/>
      <point x="430" y="140"/>
      <point x="387" y="85"/>
    </contour>
  </outline>
</glyph>
<glyph name="q" format="1">
  <advance width="598"/>
  <unicode hex="0071"/>
  <outline>
    <contour>
      <point x="253" y="523" type="curve" smooth="yes"/>
      <point x="134" y="523"/>
      <point x="58" y="437"/>
      <point x="58" y="298" type="curve" smooth="yes"/>
      <point x="58" y="219" type="line" smooth="yes"/>
      <point x="58" y="79"/>
      <point x="132" y="-7"/>
      <point x="252" y="-7" type="curve" smooth="yes"/>
      <point x="324" y="-7"/>
      <point x="381" y="25"/>
      <point x="402" y="79" type="curve"/>
      <point x="408" y="79" type="line"/>
      <point x="408" y="-175" type="line"/>
      <point x="516" y="-175" type="line"/>
      <point x="516" y="517" type="line"/>
      <point x="411" y="517" type="line"/>
      <point x="411" y="436" type="line"/>
      <point x="405" y="436" type="line"/>
      <point x="383" y="491"/>
      <point x="326" y="523"/>
    </contour>
    <contour>
      <point x="286" y="431" type="curve" smooth="yes"/>
      <point x="357" y="431"/>
      <point x="408" y="377"/>
      <point x="408" y="299" type="curve" smooth="yes"/>
      <point x="408" y="224" type="line" smooth="yes"/>
      <point x="408" y="138"/>
      <point x="362" y="85"/>
      <point x="287" y="85" type="curve" smooth="yes"/>
      <point x="212" y="85"/>
      <point x="168" y="139"/>
      <point x="168" y="230" type="curve" smooth="yes"/>
      <point x="168" y="286" type="line" smooth="yes"/>
      <point x="168" y="376"/>
      <point x="213" y="431"/>
    </contour>
  </outline>
</glyph>
<glyph name="r" format="1">
  <advance width="404"/>
  <unicode hex="0072"/>
  <outline>
    <contour>
      <point x="88" y="0" type="line"/>
      <point x="198" y="0" type="line"/>
      <point x="198" y="304" type="line" smooth="yes"/>
      <point x="198" y="374"/>
      <point x="241" y="425"/>
      <point x="328" y="425" type="curve" smooth="yes"/>
      <point x="346" y="425"/>
      <point x="365" y="424"/>
      <point x="374" y="421" type="curve"/>
      <point x="374" y="521" type="line"/>
      <point x="364" y="523"/>
      <point x="352" y="524"/>
      <point x="337" y="524" type="curve" smooth="yes"/>
      <point x="251" y="524"/>
      <point x="213" y="471"/>
      <point x="202" y="436" type="curve"/>
      <point x="196" y="436" type="line"/>
      <point x="196" y="517" type="line"/>
      <point x="88" y="517" type="line"/>
    </contour>
  </outline>
</glyph>
<glyph name="s" format="1">
  <advance width="518"/>
  <unicode hex="0073"/>
  <outline>
    <contour>
      <point x="60" y="366" type="curve" smooth="yes"/>
      <point x="60" y="265"/>
      <point x="136" y="237"/>
      <point x="230" y="218" type="curve" smooth="yes"/>
      <point x="300" y="204"/>
      <point x="359" y="196"/>
      <point x="359" y="144" type="curve" smooth="yes"/>
      <point x="359" y="104"/>
      <point x="329" y="73"/>
      <point x="256" y="73" type="curve" smooth="yes"/>
      <point x="191" y="73"/>
      <point x="161" y="100"/>
      <point x="155" y="140" type="curve"/>
      <point x="50" y="140" type="line"/>
      <point x="50" y="48"/>
      <point x="128" y="-9"/>
      <point x="251" y="-9" type="curve" smooth="yes"/>
      <point x="382" y="-9"/>
      <point x="464" y="52"/>
      <point x="464" y="157" type="curve" smooth="yes"/>
      <point x="464" y="254"/>
      <point x="390" y="286"/>
      <point x="294" y="302" type="curve" smooth="yes"/>
      <point x="237" y="312"/>
      <point x="164" y="319"/>
      <point x="164" y="376" type="curve" smooth="yes"/>
      <point x="164" y="418"/>
      <point x="201" y="444"/>
      <point x="256" y="444" type="curve" smooth="yes"/>
      <point x="319" y="444"/>
      <point x="350" y="410"/>
      <point x="353" y="376" type="curve"/>
      <point x="450" y="376" type="line"/>
      <point x="450" y="469"/>
      <point x="373" y="525"/>
      <point x="259" y="525" type="curve" smooth="yes"/>
      <point x="154" y="525"/>
      <point x="60" y="479"/>
    </contour>
  </outline>
</glyph>
<glyph name="t" format="1">
  <advance width="391"/>
  <unicode hex="0074"/>
  <outline>
    <contour>
      <point x="116" y="513" type="line"/>
      <point x="36" y="513" type="line"/>
      <point x="36" y="424" type="line"/>
      <point x="114" y="424" type="line"/>
      <point x="114" y="146" type="line" smooth="yes"/>
      <point x="114" y="42"/>
      <point x="148" y="-3"/>
      <point x="274" y="-3" type="curve" smooth="yes"/>
      <point x="298" y="-3"/>
      <point x="334" y="0"/>
      <point x="343" y="1" type="curve"/>
      <point x="343" y="88" type="line"/>
      <point x="335" y="87"/>
      <point x="315" y="86"/>
      <point x="301" y="86" type="curve" smooth="yes"/>
      <point x="243" y="86"/>
      <point x="222" y="102"/>
      <point x="222" y="156" type="curve" smooth="yes"/>
      <point x="222" y="424" type="line"/>
      <point x="337" y="424" type="line"/>
      <point x="337" y="513" type="line"/>
      <point x="222" y="513" type="line"/>
      <point x="222" y="642" type="line"/>
      <point x="116" y="642" type="line"/>
    </contour>
  </outline>
</glyph>
<glyph name="u" format="1">
  <advance width="599"/>
  <unicode hex="0075"/>
  <outline>
    <contour>
      <point x="518" y="517" type="line"/>
      <point x="409" y="517" type="line"/>
      <point x="409" y="201" type="line" smooth="yes"/>
      <point x="409" y="136"/>
      <point x="356" y="88"/>
      <point x="290" y="88" type="curve" smooth="yes"/>
      <point x="235" y="88"/>
      <point x="187" y="112"/>
      <point x="187" y="193" type="curve" smooth="yes"/>
      <point x="187" y="517" type="line"/>
      <point x="78" y="517" type="line"/>
      <point x="78" y="164" type="line" smooth="yes"/>
      <point x="78" y="42"/>
      <point x="150" y="-8"/>
      <point x="253" y="-8" type="curve" smooth="yes"/>
      <point x="343" y="-8"/>
      <point x="391" y="44"/>
      <point x="405" y="86" type="curve"/>
      <point x="411" y="86" type="line"/>
      <point x="411" y="0" type="line"/>
      <point x="518" y="0" type="line"/>
    </contour>
  </outline>
</glyph>
<glyph name="v" format="1">
  <advance width="522"/>
  <unicode hex="0076"/>
  <outline>
    <contour>
      <point x="199" y="0" type="line"/>
      <point x="316" y="0" type="line"/>
      <point x="500" y="517" type="line"/>
      <point x="385" y="517" type="line"/>
      <point x="260" y="109" type="line"/>
      <point x="256" y="109" type="line"/>
      <point x="141" y="517" type="line"/>
      <point x="22" y="517" type="line"/>
    </contour>
  </outline>
</glyph>
<glyph name="w" format="1">
  <advance width="766"/>
  <unicode hex="0077"/>
  <outline>
    <contour>
      <point x="741" y="517" type="line"/>
      <point x="632" y="517" type="line"/>
      <point x="548" y="126" type="line"/>
      <point x="543" y="126" type="line"/>
      <point x="436" y="517" type="line"/>
      <point x="334" y="517" type="line"/>
      <point x="230" y="126" type="line"/>
      <point x="225" y="126" type="line"/>
      <point x="142" y="517" type="line"/>
      <point x="25" y="517" type="line"/>
      <point x="167" y="0" type="line"/>
      <point x="278" y="0" type="line"/>
      <point x="384" y="377" type="line"/>
      <point x="387" y="377" type="line"/>
      <point x="495" y="0" type="line"/>
      <point x="605" y="0" type="line"/>
    </contour>
  </outline>
</glyph>
<glyph name="x" format="1">
  <advance width="538"/>
  <unicode hex="0078"/>
  <outline>
    <contour>
      <point x="379" y="0" type="line"/>
      <point x="503" y="0" type="line"/>
      <point x="332" y="262" type="line"/>
      <point x="503" y="517" type="line"/>
      <point x="383" y="517" type="line"/>
      <point x="271" y="336" type="line"/>
      <point x="267" y="336" type="line"/>
      <point x="159" y="517" type="line"/>
      <point x="32" y="517" type="line"/>
      <point x="202" y="256" type="line"/>
      <point x="36" y="0" type="line"/>
      <point x="153" y="0" type="line"/>
      <point x="264" y="181" type="line"/>
      <point x="269" y="181" type="line"/>
    </contour>
  </outline>
</glyph>
<glyph name="y" format="1">
  <advance width="545"/>
  <unicode hex="0079"/>
  <outline>
    <contour>
      <point x="513" y="517" type="curve"/>
      <point x="398" y="517" type="line"/>
      <point x="274" y="102" type="line"/>
      <point x="270" y="102" type="line"/>
      <point x="146" y="517" type="line"/>
      <point x="26" y="517" type="line"/>
      <point x="210" y="-3" type="line"/>
      <point x="204" y="-24" type="line"/>
      <point x="193" y="-72"/>
      <point x="169" y="-99"/>
      <point x="107" y="-99" type="curve" smooth="yes"/>
      <point x="94" y="-99"/>
      <point x="75" y="-97"/>
      <point x="67" y="-96" type="curve"/>
      <point x="67" y="-181" type="line"/>
      <point x="80" y="-183"/>
      <point x="105" y="-186"/>
      <point x="129" y="-186" type="curve" smooth="yes"/>
      <point x="250" y="-186"/>
      <point x="292" y="-114"/>
      <point x="324" y="-26" type="curve" smooth="yes"/>
      <point x="337" y="9" type="line"/>
      <point x="338" y="12"/>
      <point x="513" y="517"/>
    </contour>
  </outline>
</glyph>
<glyph name="z" format="1">
  <advance width="506"/>
  <unicode hex="007A"/>
  <outline>
    <contour>
      <point x="57" y="0" type="line"/>
      <point x="454" y="0" type="line"/>
      <point x="454" y="92" type="line"/>
      <point x="194" y="92" type="line"/>
      <point x="194" y="98" type="line"/>
      <point x="449" y="444" type="line"/>
      <point x="449" y="517" type="line"/>
      <point x="58" y="517" type="line"/>
      <point x="58" y="425" type="line"/>
      <point x="317" y="425" type="line"/>
      <point x="317" y="419" type="line"/>
      <point x="57" y="68" type="line"/>
    </contour>
  </outline>
</glyph>
<glyph name="u1F355" format="1">
  <advance width="800"/>
  <unicode hex="1F355"/>
  <outline>
    <contour>
      <point x="76" y="686" type="curve"/>
      <point x="389" y="741" type="line"/>
      <point x="723" y="686" type="line"/>
      <point x="754" y="686"/>
      <point x="774" y="653"/>
      <point x="759" y="625" type="curve" smooth="yes"/>
      <point x="436" y="22" type="line" smooth="yes"/>
      <point x="420" y="-7"/>
      <point x="379" y="-7"/>
      <point x="363" y="22" type="curve" smooth="yes"/>
      <point x="40" y="625" type="line" smooth="yes"/>
      <point x="25" y="653"/>
      <point x="45" y="686"/>
    </contour>
  </outline>
</glyph>
<glyph name="u1F419" format="1">
  <advance width="800"/>
  <unicode hex="1F419"/>
  <outline>
    <contour>
      <point x="738" y="323" type="curve" smooth="yes"/>
      <point x="726" y="324"/>
      <point x="713" y="315"/>
      <point x="702" y="309" type="curve" smooth="yes"/>
      <point x="688" y="301"/>
      <point x="676" y="295"/>
      <point x="660" y="292" type="curve" smooth="yes"/>
      <point x="646" y="290"/>
      <point x="632" y="290"/>
      <point x="619" y="294" type="curve" smooth="yes"/>
      <point x="619" y="294"/>
      <point x="619" y="294"/>
      <point x="618" y="294" type="curve" smooth="yes"/>
      <point x="599" y="300"/>
      <point x="582" y="312"/>
      <point x="565" y="323" type="curve" smooth="yes"/>
      <point x="558" y="328"/>
      <point x="551" y="333"/>
      <point x="544" y="338" type="curve" smooth="yes"/>
      <point x="540" y="341"/>
      <point x="537" y="343"/>
      <point x="534" y="346" type="curve" smooth="yes"/>
      <point x="533" y="346"/>
      <point x="525" y="353"/>
      <point x="525" y="353" type="curve"/>
      <point x="542" y="359"/>
      <point x="561" y="358"/>
      <point x="579" y="357" type="curve" smooth="yes"/>
      <point x="598" y="355"/>
      <point x="616" y="352"/>
      <point x="635" y="351" type="curve" smooth="yes"/>
      <point x="658" y="349"/>
      <point x="681" y="350"/>
      <point x="703" y="360" type="curve" smooth="yes"/>
      <point x="711" y="364"/>
      <point x="720" y="370"/>
      <point x="727" y="376" type="curve" smooth="yes"/>
      <point x="759" y="407"/>
      <point x="777" y="441"/>
      <point x="770" y="483" type="curve" smooth="yes"/>
      <point x="769" y="492"/>
      <point x="766" y="501"/>
      <point x="763" y="510" type="curve" smooth="yes"/>
      <point x="761" y="513"/>
      <point x="760" y="516"/>
      <point x="759" y="519" type="curve" smooth="yes"/>
      <point x="742" y="556"/>
      <point x="695" y="602"/>
      <point x="661" y="623" type="curve" smooth="yes"/>
      <point x="621" y="648"/>
      <point x="585" y="673"/>
      <point x="536" y="664" type="curve" smooth="yes"/>
      <point x="527" y="662"/>
      <point x="517" y="660"/>
      <point x="508" y="657" type="curve" smooth="yes"/>
      <point x="486" y="650"/>
      <point x="464" y="639"/>
      <point x="444" y="626" type="curve" smooth="yes"/>
      <point x="444" y="626"/>
      <point x="444" y="626"/>
      <point x="444" y="625" type="curve" smooth="yes"/>
      <point x="440" y="623"/>
      <point x="436" y="620"/>
      <point x="432" y="617" type="curve"/>
      <point x="431" y="623"/>
      <point x="430" y="628"/>
      <point x="429" y="633" type="curve" smooth="yes"/>
      <point x="427" y="645"/>
      <point x="425" y="657"/>
      <point x="425" y="668" type="curve" smooth="yes"/>
      <point x="426" y="675"/>
      <point x="427" y="681"/>
      <point x="430" y="686" type="curve" smooth="yes"/>
      <point x="433" y="694"/>
      <point x="439" y="699"/>
      <point x="448" y="703" type="curve" smooth="yes"/>
      <point x="475" y="714"/>
      <point x="487" y="714"/>
      <point x="511" y="729" type="curve" smooth="yes"/>
      <point x="514" y="730"/>
      <point x="516" y="732"/>
      <point x="517" y="735" type="curve" smooth="yes"/>
      <point x="520" y="739"/>
      <point x="521" y="744"/>
      <point x="521" y="749" type="curve" smooth="yes"/>
      <point x="521" y="755"/>
      <point x="520" y="761"/>
      <point x="518" y="765" type="curve" smooth="yes"/>
      <point x="507" y="783"/>
      <point x="463" y="801"/>
      <point x="424" y="780" type="curve" smooth="yes"/>
      <point x="350" y="740"/>
      <point x="398" y="668"/>
      <point x="366" y="593" type="curve" smooth="yes"/>
      <point x="363" y="587"/>
      <point x="360" y="580"/>
      <point x="354" y="576" type="curve" smooth="yes"/>
      <point x="350" y="573"/>
      <point x="346" y="572"/>
      <point x="341" y="571" type="curve" smooth="yes"/>
      <point x="293" y="559"/>
      <point x="267" y="607"/>
      <point x="269" y="658" type="curve" smooth="yes"/>
      <point x="269" y="661"/>
      <point x="269" y="663"/>
      <point x="269" y="665" type="curve" smooth="yes"/>
      <point x="271" y="688"/>
      <point x="278" y="712"/>
      <point x="278" y="730" type="curve" smooth="yes"/>
      <point x="277" y="747"/>
      <point x="271" y="759"/>
      <point x="249" y="759" type="curve" smooth="yes"/>
      <point x="221" y="759"/>
      <point x="197" y="748"/>
      <point x="193" y="694" type="curve" smooth="yes"/>
      <point x="193" y="694"/>
      <point x="193" y="693"/>
      <point x="193" y="692" type="curve" smooth="yes"/>
      <point x="190" y="605"/>
      <point x="276" y="539"/>
      <point x="290" y="518" type="curve" smooth="yes"/>
      <point x="294" y="512"/>
      <point x="297" y="506"/>
      <point x="298" y="500" type="curve" smooth="yes"/>
      <point x="301" y="483"/>
      <point x="289" y="471"/>
      <point x="266" y="460" type="curve" smooth="yes"/>
      <point x="236" y="445"/>
      <point x="209" y="470"/>
      <point x="190" y="488" type="curve" smooth="yes"/>
      <point x="155" y="520"/>
      <point x="152" y="582"/>
      <point x="140" y="634" type="curve" smooth="yes"/>
      <point x="131" y="674"/>
      <point x="106" y="680"/>
      <point x="89" y="678" type="curve" smooth="yes"/>
      <point x="66" y="675"/>
      <point x="48" y="641"/>
      <point x="46" y="606" type="curve" smooth="yes"/>
      <point x="45" y="595"/>
      <point x="46" y="584"/>
      <point x="49" y="573" type="curve" smooth="yes"/>
      <point x="57" y="545"/>
      <point x="113" y="424"/>
      <point x="228" y="410" type="curve" smooth="yes"/>
      <point x="238" y="408"/>
      <point x="250" y="403"/>
      <point x="253" y="395" type="curve" smooth="yes"/>
      <point x="254" y="393"/>
      <point x="254" y="391"/>
      <point x="254" y="389" type="curve" smooth="yes"/>
      <point x="252" y="365"/>
      <point x="211" y="358"/>
      <point x="152" y="358" type="curve" smooth="yes"/>
      <point x="69" y="359"/>
      <point x="83" y="420"/>
      <point x="53" y="420" type="curve" smooth="yes"/>
      <point x="33" y="421"/>
      <point x="20" y="412"/>
      <point x="13" y="398" type="curve" smooth="yes"/>
      <point x="5" y="382"/>
      <point x="6" y="360"/>
      <point x="12" y="342" type="curve" smooth="yes"/>
      <point x="13" y="339"/>
      <point x="14" y="336"/>
      <point x="16" y="334" type="curve" smooth="yes"/>
      <point x="16" y="334"/>
      <point x="16" y="334"/>
      <point x="16" y="334" type="curve" smooth="yes"/>
      <point x="26" y="312"/>
      <point x="67" y="274"/>
      <point x="135" y="275" type="curve" smooth="yes"/>
      <point x="217" y="277"/>
      <point x="272" y="359"/>
      <point x="290" y="355" type="curve" smooth="yes"/>
      <point x="296" y="353"/>
      <point x="299" y="348"/>
      <point x="300" y="342" type="curve" smooth="yes"/>
      <point x="302" y="332"/>
      <point x="298" y="318"/>
      <point x="293" y="308" type="curve" smooth="yes"/>
      <point x="266" y="258"/>
      <point x="125" y="213"/>
      <point x="95" y="165" type="curve" smooth="yes"/>
      <point x="95" y="165"/>
      <point x="95" y="165"/>
      <point x="95" y="165" type="curve" smooth="yes"/>
      <point x="90" y="157"/>
      <point x="87" y="148"/>
      <point x="85" y="140" type="curve" smooth="yes"/>
      <point x="77" y="98"/>
      <point x="107" y="54"/>
      <point x="136" y="54" type="curve" smooth="yes"/>
      <point x="152" y="54"/>
      <point x="165" y="65"/>
      <point x="174" y="79" type="curve" smooth="yes"/>
      <point x="186" y="97"/>
      <point x="194" y="120"/>
      <point x="202" y="139" type="curve" smooth="yes"/>
      <point x="206" y="150"/>
      <point x="214" y="161"/>
      <point x="224" y="173" type="curve" smooth="yes"/>
      <point x="263" y="222"/>
      <point x="336" y="274"/>
      <point x="347" y="262" type="curve" smooth="yes"/>
      <point x="348" y="261"/>
      <point x="349" y="260"/>
      <point x="350" y="258" type="curve" smooth="yes"/>
      <point x="355" y="251"/>
      <point x="356" y="242"/>
      <point x="353" y="234" type="curve" smooth="yes"/>
      <point x="328" y="170"/>
      <point x="299" y="128"/>
      <point x="298" y="91" type="curve" smooth="yes"/>
      <point x="297" y="81"/>
      <point x="299" y="71"/>
      <point x="304" y="61" type="curve" smooth="yes"/>
      <point x="318" y="30"/>
      <point x="363" y="5"/>
      <point x="386" y="21" type="curve" smooth="yes"/>
      <point x="387" y="21"/>
      <point x="388" y="22"/>
      <point x="389" y="23" type="curve" smooth="yes"/>
      <point x="394" y="28"/>
      <point x="396" y="38"/>
      <point x="395" y="50" type="curve" smooth="yes"/>
      <point x="393" y="77"/>
      <point x="382" y="117"/>
      <point x="383" y="154" type="curve" smooth="yes"/>
      <point x="383" y="157"/>
      <point x="383" y="160"/>
      <point x="384" y="163" type="curve" smooth="yes"/>
      <point x="386" y="189"/>
      <point x="393" y="219"/>
      <point x="406" y="238" type="curve" smooth="yes"/>
      <point x="415" y="251"/>
      <point x="426" y="259"/>
      <point x="441" y="259" type="curve" smooth="yes"/>
      <point x="451" y="259"/>
      <point x="472" y="214"/>
      <point x="486" y="161" type="curve" smooth="yes"/>
      <point x="501" y="99"/>
      <point x="563" y="54"/>
      <point x="631" y="73" type="curve" smooth="yes"/>
      <point x="649" y="79"/>
      <point x="669" y="89"/>
      <point x="677" y="102" type="curve" smooth="yes"/>
      <point x="679" y="106"/>
      <point x="681" y="110"/>
      <point x="681" y="115" type="curve" smooth="yes"/>
      <point x="681" y="118"/>
      <point x="681" y="121"/>
      <point x="680" y="124" type="curve" smooth="yes"/>
      <point x="676" y="138"/>
      <point x="662" y="143"/>
      <point x="654" y="146" type="curve" smooth="yes"/>
      <point x="633" y="154"/>
      <point x="581" y="169"/>
      <point x="554" y="184" type="curve" smooth="yes"/>
      <point x="518" y="206"/>
      <point x="503" y="260"/>
      <point x="505" y="288" type="curve" smooth="yes"/>
      <point x="505" y="288"/>
      <point x="505" y="288"/>
      <point x="505" y="288" type="curve" smooth="yes"/>
      <point x="505" y="294"/>
      <point x="507" y="299"/>
      <point x="509" y="302" type="curve" smooth="yes"/>
      <point x="526" y="319"/>
      <point x="551" y="263"/>
      <point x="574" y="245" type="curve" smooth="yes"/>
      <point x="629" y="201"/>
      <point x="711" y="182"/>
      <point x="755" y="245" type="curve" smooth="yes"/>
      <point x="756" y="246"/>
      <point x="757" y="248"/>
      <point x="758" y="251" type="curve" smooth="yes"/>
      <point x="764" y="263"/>
      <point x="772" y="288"/>
      <point x="772" y="297" type="curve" smooth="yes"/>
      <point x="772" y="314"/>
      <point x="755" y="322"/>
    </contour>
  </outline>
</glyph>
<glyph name="u1F355.layer2" format="1">
  <advance width="800"/>
  <outline>
    <contour>
      <point x="419" y="317" type="curve" smooth="yes"/>
      <point x="419" y="272"/>
      <point x="382" y="236"/>
      <point x="337" y="236" type="curve" smooth="yes"/>
      <point x="292" y="236"/>
      <point x="256" y="272"/>
      <point x="256" y="317" type="curve" smooth="yes"/>
      <point x="256" y="362"/>
      <point x="292" y="399"/>
      <point x="337" y="399" type="curve"/>
      <point x="337" y="399" type="line"/>
      <point x="382" y="399"/>
      <point x="419" y="362"/>
    </contour>
    <contour>
      <point x="522" y="189" type="move"/>
      <point x="483" y="210"/>
      <point x="433" y="195"/>
      <point x="412" y="156" type="curve" smooth="yes"/>
      <point x="390" y="116"/>
      <point x="405" y="67"/>
      <point x="444" y="45" type="curve" smooth="yes"/>
      <point x="445" y="45"/>
      <point x="445" y="45"/>
      <point x="446" y="45" type="curve"/>
    </contour>
    <contour>
      <point x="522" y="581" type="line"/>
      <point x="477" y="581"/>
      <point x="441" y="545"/>
      <point x="441" y="500" type="curve" smooth="yes"/>
      <point x="441" y="455"/>
      <point x="477" y="418"/>
      <point x="522" y="418" type="curve" smooth="yes"/>
      <point x="567" y="418"/>
      <point x="603" y="455"/>
      <point x="603" y="500" type="curve" smooth="yes"/>
      <point x="603" y="545"/>
      <point x="567" y="581"/>
      <point x="522" y="581" type="curve"/>
    </contour>
    <contour>
      <point x="236" y="634" type="line"/>
      <point x="192" y="634"/>
      <point x="155" y="598"/>
      <point x="155" y="553" type="curve" smooth="yes"/>
      <point x="155" y="508"/>
      <point x="192" y="471"/>
      <point x="236" y="471" type="curve" smooth="yes"/>
      <point x="281" y="471"/>
      <point x="318" y="508"/>
      <point x="318" y="553" type="curve"/>
      <point x="318" y="553" type="line"/>
      <point x="318" y="598"/>
      <point x="281" y="634"/>
      <point x="236" y="634" type="curve"/>
    </contour>
  </outline>
</glyph>
<glyph name="u1F355.layer3" format="1">
  <advance width="800"/>
  <outline>
    <contour>
      <point x="60" y="595" type="curve" smooth="yes"/>
      <point x="27" y="595"/>
      <point x="0" y="622"/>
      <point x="0" y="655" type="curve" smooth="yes"/>
      <point x="0" y="676"/>
      <point x="12" y="696"/>
      <point x="31" y="707" type="curve" smooth="yes"/>
      <point x="86" y="737"/>
      <point x="144" y="760"/>
      <point x="205" y="776" type="curve" smooth="yes"/>
      <point x="330" y="808"/>
      <point x="461" y="808"/>
      <point x="586" y="777" type="curve" smooth="yes"/>
      <point x="648" y="762"/>
      <point x="709" y="739"/>
      <point x="765" y="708" type="curve" smooth="yes"/>
      <point x="794" y="693"/>
      <point x="805" y="657"/>
      <point x="790" y="628" type="curve" smooth="yes"/>
      <point x="775" y="599"/>
      <point x="739" y="588"/>
      <point x="710" y="603" type="curve" smooth="yes"/>
      <point x="709" y="603"/>
      <point x="709" y="603"/>
      <point x="708" y="604" type="curve" smooth="yes"/>
      <point x="661" y="629"/>
      <point x="610" y="649"/>
      <point x="557" y="662" type="curve" smooth="yes"/>
      <point x="505" y="675"/>
      <point x="452" y="681"/>
      <point x="398" y="681" type="curve" smooth="yes"/>
      <point x="396" y="681" type="line" smooth="yes"/>
      <point x="342" y="681"/>
      <point x="287" y="674"/>
      <point x="235" y="661" type="curve" smooth="yes"/>
      <point x="184" y="648"/>
      <point x="134" y="628"/>
      <point x="88" y="603" type="curve" smooth="yes"/>
      <point x="80" y="598"/>
      <point x="70" y="595"/>
    </contour>
  </outline>
</glyph>
<glyph name="u1F419.eyelight" format="1">
  <advance width="800"/>
  <outline>
    <contour>
      <point x="491" y="541" type="curve" smooth="yes"/>
      <point x="496" y="541"/>
      <point x="501" y="537"/>
      <point x="501" y="531" type="curve" smooth="yes"/>
      <point x="501" y="526"/>
      <point x="496" y="522"/>
      <point x="491" y="522" type="curve" smooth="yes"/>
      <point x="486" y="522"/>
      <point x="482" y="526"/>
      <point x="482" y="531" type="curve" smooth="yes"/>
      <point x="482" y="537"/>
      <point x="486" y="541"/>
    </contour>
    <contour>
      <point x="545" y="462" type="curve" smooth="yes"/>
      <point x="551" y="462"/>
      <point x="555" y="458"/>
      <point x="555" y="453" type="curve" smooth="yes"/>
      <point x="555" y="448"/>
      <point x="551" y="443"/>
      <point x="545" y="443" type="curve" smooth="yes"/>
      <point x="540" y="443"/>
      <point x="536" y="448"/>
      <point x="536" y="453" type="curve" smooth="yes"/>
      <point x="536" y="458"/>
      <point x="540" y="462"/>
    </contour>
  </outline>
</glyph>
<glyph name="u1F419.eyes" format="1">
  <advance width="800"/>
  <outline>
    <contour>
      <point x="480" y="553" type="curve" smooth="yes"/>
      <point x="501" y="553"/>
      <point x="517" y="537"/>
      <point x="517" y="516" type="curve" smooth="yes"/>
      <point x="517" y="496"/>
      <point x="501" y="480"/>
      <point x="480" y="480" type="curve" smooth="yes"/>
      <point x="460" y="480"/>
      <point x="444" y="496"/>
      <point x="444" y="516" type="curve" smooth="yes"/>
      <point x="444" y="537"/>
      <point x="460" y="553"/>
    </contour>
    <contour>
      <point x="534" y="474" type="curve" smooth="yes"/>
      <point x="555" y="474"/>
      <point x="571" y="458"/>
      <point x="571" y="438" type="curve" smooth="yes"/>
      <point x="571" y="418"/>
      <point x="555" y="401"/>
      <point x="534" y="401" type="curve" smooth="yes"/>
      <point x="514" y="401"/>
      <point x="498" y="418"/>
      <point x="498" y="438" type="curve" smooth="yes"/>
      <point x="498" y="458"/>
      <point x="514" y="474"/>
    </contour>
  </outline>
</glyph>
<glyph name="u1F419.highlight" format="1">
  <advance width="800"/>
  <outline>
    <contour>
      <point x="660" y="152" type="curve" smooth="yes"/>
      <point x="636" y="171"/>
      <point x="581" y="179"/>
      <point x="554" y="195" type="curve" smooth="yes"/>
      <point x="522" y="213"/>
      <point x="506" y="258"/>
      <point x="505" y="288" type="curve"/>
      <point x="503" y="260"/>
      <point x="518" y="206"/>
      <point x="554" y="184" type="curve" smooth="yes"/>
      <point x="581" y="169"/>
      <point x="633" y="154"/>
      <point x="654" y="146" type="curve" smooth="yes"/>
      <point x="662" y="143"/>
      <point x="676" y="138"/>
      <point x="680" y="124" type="curve"/>
      <point x="680" y="125"/>
      <point x="680" y="127"/>
      <point x="679" y="128" type="curve" smooth="yes"/>
      <point x="677" y="138"/>
      <point x="669" y="146"/>
    </contour>
    <contour>
      <point x="395" y="50" type="curve"/>
      <point x="397" y="74"/>
      <point x="384" y="115"/>
      <point x="383" y="154" type="curve"/>
      <point x="382" y="117"/>
      <point x="393" y="77"/>
    </contour>
    <contour>
      <point x="300" y="342" type="curve"/>
      <point x="299" y="334"/>
      <point x="296" y="325"/>
      <point x="293" y="318" type="curve" smooth="yes"/>
      <point x="290" y="313"/>
      <point x="286" y="309"/>
      <point x="282" y="304" type="curve" smooth="yes"/>
      <point x="240" y="261"/>
      <point x="128" y="224"/>
      <point x="102" y="180" type="curve" smooth="yes"/>
      <point x="99" y="175"/>
      <point x="97" y="170"/>
      <point x="95" y="165" type="curve"/>
      <point x="125" y="213"/>
      <point x="266" y="258"/>
      <point x="293" y="308" type="curve" smooth="yes"/>
      <point x="298" y="318"/>
      <point x="302" y="332"/>
    </contour>
    <contour>
      <point x="518" y="765" type="curve" smooth="yes"/>
      <point x="520" y="761"/>
      <point x="521" y="755"/>
      <point x="521" y="749" type="curve"/>
      <point x="523" y="757"/>
      <point x="522" y="767"/>
      <point x="518" y="776" type="curve" smooth="yes"/>
      <point x="509" y="794"/>
      <point x="463" y="811"/>
      <point x="424" y="790" type="curve" smooth="yes"/>
      <point x="420" y="788"/>
      <point x="416" y="786"/>
      <point x="413" y="783" type="curve" smooth="yes"/>
      <point x="355" y="742"/>
      <point x="397" y="674"/>
      <point x="366" y="604" type="curve" smooth="yes"/>
      <point x="363" y="597"/>
      <point x="360" y="590"/>
      <point x="354" y="586" type="curve" smooth="yes"/>
      <point x="354" y="586"/>
      <point x="354" y="586"/>
      <point x="354" y="586" type="curve" smooth="yes"/>
      <point x="350" y="583"/>
      <point x="346" y="582"/>
      <point x="341" y="581" type="curve" smooth="yes"/>
      <point x="296" y="570"/>
      <point x="271" y="611"/>
      <point x="269" y="658" type="curve"/>
      <point x="267" y="607"/>
      <point x="293" y="559"/>
      <point x="341" y="571" type="curve" smooth="yes"/>
      <point x="346" y="572"/>
      <point x="350" y="573"/>
      <point x="354" y="576" type="curve" smooth="yes"/>
      <point x="360" y="580"/>
      <point x="363" y="587"/>
      <point x="366" y="593" type="curve" smooth="yes"/>
      <point x="398" y="668"/>
      <point x="350" y="740"/>
      <point x="424" y="780" type="curve" smooth="yes"/>
      <point x="463" y="801"/>
      <point x="507" y="783"/>
    </contour>
    <contour>
      <point x="254" y="389" type="curve" smooth="yes"/>
      <point x="254" y="391"/>
      <point x="254" y="393"/>
      <point x="253" y="395" type="curve"/>
      <point x="251" y="388"/>
      <point x="246" y="383"/>
      <point x="237" y="379" type="curve" smooth="yes"/>
      <point x="220" y="371"/>
      <point x="189" y="368"/>
      <point x="152" y="368" type="curve" smooth="yes"/>
      <point x="69" y="369"/>
      <point x="83" y="431"/>
      <point x="53" y="431" type="curve" smooth="yes"/>
      <point x="34" y="431"/>
      <point x="21" y="418"/>
      <point x="15" y="402" type="curve" smooth="yes"/>
      <point x="14" y="401"/>
      <point x="14" y="400"/>
      <point x="13" y="398" type="curve"/>
      <point x="20" y="412"/>
      <point x="33" y="421"/>
      <point x="53" y="420" type="curve" smooth="yes"/>
      <point x="83" y="420"/>
      <point x="69" y="359"/>
      <point x="152" y="358" type="curve" smooth="yes"/>
      <point x="211" y="358"/>
      <point x="252" y="365"/>
    </contour>
    <contour>
      <point x="346" y="239" type="curve" smooth="yes"/>
      <point x="342" y="231"/>
      <point x="339" y="223"/>
      <point x="336" y="216" type="curve" smooth="yes"/>
      <point x="328" y="198"/>
      <point x="321" y="182"/>
      <point x="315" y="168" type="curve" smooth="yes"/>
      <point x="302" y="138"/>
      <point x="294" y="114"/>
      <point x="298" y="91" type="curve"/>
      <point x="299" y="128"/>
      <point x="328" y="170"/>
      <point x="353" y="234" type="curve" smooth="yes"/>
      <point x="356" y="242"/>
      <point x="355" y="251"/>
      <point x="350" y="258" type="curve"/>
      <point x="350" y="251"/>
      <point x="347" y="244"/>
    </contour>
    <contour>
      <point x="193" y="694" type="curve" smooth="yes"/>
      <point x="197" y="748"/>
      <point x="221" y="759"/>
      <point x="249" y="759" type="curve" smooth="yes"/>
      <point x="271" y="759"/>
      <point x="277" y="747"/>
      <point x="278" y="730" type="curve"/>
      <point x="280" y="753"/>
      <point x="275" y="770"/>
      <point x="245" y="769" type="curve" smooth="yes"/>
      <point x="232" y="769"/>
      <point x="220" y="767"/>
      <point x="212" y="759" type="curve" smooth="yes"/>
      <point x="202" y="750"/>
      <point x="195" y="733"/>
      <point x="194" y="705" type="curve" smooth="yes"/>
      <point x="193" y="701"/>
      <point x="193" y="696"/>
      <point x="193" y="692" type="curve"/>
      <point x="193" y="693"/>
      <point x="193" y="694"/>
    </contour>
    <contour>
      <point x="16" y="334" type="curve"/>
      <point x="14" y="336"/>
      <point x="13" y="339"/>
      <point x="12" y="342" type="curve"/>
      <point x="13" y="339"/>
      <point x="14" y="336"/>
    </contour>
    <contour>
      <point x="89" y="678" type="curve" smooth="yes"/>
      <point x="106" y="680"/>
      <point x="131" y="674"/>
      <point x="140" y="634" type="curve" smooth="yes"/>
      <point x="152" y="582"/>
      <point x="155" y="520"/>
      <point x="190" y="488" type="curve" smooth="yes"/>
      <point x="209" y="470"/>
      <point x="236" y="445"/>
      <point x="266" y="460" type="curve" smooth="yes"/>
      <point x="289" y="471"/>
      <point x="301" y="483"/>
      <point x="298" y="500" type="curve"/>
      <point x="296" y="493"/>
      <point x="291" y="486"/>
      <point x="283" y="480" type="curve" smooth="yes"/>
      <point x="278" y="477"/>
      <point x="273" y="474"/>
      <point x="266" y="471" type="curve" smooth="yes"/>
      <point x="237" y="456"/>
      <point x="209" y="480"/>
      <point x="190" y="498" type="curve" smooth="yes"/>
      <point x="155" y="530"/>
      <point x="152" y="593"/>
      <point x="140" y="644" type="curve" smooth="yes"/>
      <point x="131" y="685"/>
      <point x="111" y="690"/>
      <point x="89" y="688" type="curve" smooth="yes"/>
      <point x="85" y="688"/>
      <point x="81" y="687"/>
      <point x="78" y="685" type="curve" smooth="yes"/>
      <point x="58" y="673"/>
      <point x="45" y="639"/>
      <point x="46" y="606" type="curve"/>
      <point x="48" y="641"/>
      <point x="66" y="675"/>
    </contour>
    <contour>
      <point x="508" y="657" type="curve" smooth="yes"/>
      <point x="517" y="660"/>
      <point x="527" y="662"/>
      <point x="536" y="664" type="curve" smooth="yes"/>
      <point x="585" y="673"/>
      <point x="621" y="648"/>
      <point x="661" y="623" type="curve" smooth="yes"/>
      <point x="695" y="602"/>
      <point x="742" y="556"/>
      <point x="759" y="519" type="curve" smooth="yes"/>
      <point x="760" y="516"/>
      <point x="761" y="513"/>
      <point x="763" y="510" type="curve"/>
      <point x="760" y="524"/>
      <point x="755" y="538"/>
      <point x="748" y="550" type="curve" smooth="yes"/>
      <point x="727" y="584"/>
      <point x="695" y="621"/>
      <point x="661" y="642" type="curve" smooth="yes"/>
      <point x="621" y="667"/>
      <point x="585" y="692"/>
      <point x="536" y="683" type="curve" smooth="yes"/>
      <point x="498" y="675"/>
      <point x="462" y="659"/>
      <point x="431" y="635" type="curve"/>
      <point x="428" y="646"/>
      <point x="427" y="656"/>
      <point x="425" y="667" type="curve"/>
      <point x="425" y="653"/>
      <point x="427" y="640"/>
      <point x="430" y="626" type="curve" smooth="yes"/>
      <point x="430" y="626"/>
      <point x="430" y="626"/>
      <point x="431" y="625" type="curve" smooth="yes"/>
      <point x="431" y="623"/>
      <point x="432" y="620"/>
      <point x="432" y="617" type="curve" smooth="yes"/>
      <point x="432" y="617"/>
      <point x="432" y="617"/>
      <point x="432" y="617" type="curve"/>
      <point x="433" y="618"/>
      <point x="434" y="618"/>
      <point x="435" y="619" type="curve" smooth="yes"/>
      <point x="457" y="635"/>
      <point x="482" y="648"/>
    </contour>
    <contour>
      <point x="738" y="333" type="curve" smooth="yes"/>
      <point x="722" y="335"/>
      <point x="692" y="310"/>
      <point x="676" y="306" type="curve" smooth="yes"/>
      <point x="631" y="294"/>
      <point x="606" y="301"/>
      <point x="534" y="356" type="curve"/>
      <point x="534" y="356"/>
      <point x="534" y="355"/>
      <point x="534" y="355" type="curve" smooth="yes"/>
      <point x="533" y="355"/>
      <point x="533" y="355"/>
      <point x="532" y="355" type="curve" smooth="yes"/>
      <point x="531" y="355"/>
      <point x="531" y="355"/>
      <point x="530" y="355" type="curve" smooth="yes"/>
      <point x="530" y="355"/>
      <point x="530" y="354"/>
      <point x="529" y="354" type="curve" smooth="yes"/>
      <point x="528" y="354"/>
      <point x="526" y="354"/>
      <point x="525" y="353" type="curve"/>
      <point x="540" y="339"/>
      <point x="559" y="326"/>
      <point x="577" y="314" type="curve" smooth="yes"/>
      <point x="595" y="303"/>
      <point x="615" y="293"/>
      <point x="636" y="291" type="curve" smooth="yes"/>
      <point x="637" y="291"/>
      <point x="637" y="291"/>
      <point x="637" y="291" type="curve" smooth="yes"/>
      <point x="638" y="291"/>
      <point x="638" y="291"/>
      <point x="638" y="291" type="curve" smooth="yes"/>
      <point x="650" y="290"/>
      <point x="662" y="292"/>
      <point x="674" y="295" type="curve" smooth="yes"/>
      <point x="674" y="295"/>
      <point x="675" y="296"/>
      <point x="676" y="296" type="curve" smooth="yes"/>
      <point x="692" y="300"/>
      <point x="722" y="324"/>
      <point x="738" y="323" type="curve" smooth="yes"/>
      <point x="755" y="322"/>
      <point x="772" y="314"/>
      <point x="772" y="297" type="curve"/>
      <point x="772" y="299"/>
      <point x="772" y="301"/>
      <point x="772" y="302" type="curve" smooth="yes"/>
      <point x="773" y="319"/>
      <point x="755" y="332"/>
    </contour>
  </outline>
</glyph>
<glyph name="u1F419.shadow" format="1">
  <advance width="800"/>
  <outline>
    <contour>
      <point x="354" y="586" type="curve"/>
      <point x="354" y="586"/>
      <point x="354" y="586"/>
      <point x="354" y="586" type="curve" smooth="yes"/>
      <point x="360" y="590"/>
      <point x="363" y="597"/>
      <point x="366" y="604" type="curve" smooth="yes"/>
      <point x="397" y="674"/>
      <point x="355" y="742"/>
      <point x="413" y="783" type="curve"/>
      <point x="342" y="745"/>
      <point x="379" y="658"/>
    </contour>
    <contour>
      <point x="495" y="713" type="curve" smooth="yes"/>
      <point x="503" y="717"/>
      <point x="513" y="726"/>
      <point x="517" y="735" type="curve"/>
      <point x="516" y="732"/>
      <point x="514" y="730"/>
      <point x="511" y="729" type="curve" smooth="yes"/>
      <point x="487" y="714"/>
      <point x="475" y="714"/>
      <point x="448" y="703" type="curve" smooth="yes"/>
      <point x="439" y="699"/>
      <point x="433" y="694"/>
      <point x="430" y="686" type="curve"/>
      <point x="430" y="687"/>
      <point x="431" y="687"/>
      <point x="432" y="687" type="curve" smooth="yes"/>
      <point x="459" y="698"/>
      <point x="471" y="698"/>
    </contour>
    <contour>
      <point x="283" y="480" type="curve"/>
      <point x="291" y="486"/>
      <point x="296" y="493"/>
      <point x="298" y="500" type="curve"/>
      <point x="297" y="506"/>
      <point x="294" y="512"/>
      <point x="290" y="518" type="curve" smooth="yes"/>
      <point x="276" y="539"/>
      <point x="190" y="605"/>
      <point x="193" y="692" type="curve"/>
      <point x="193" y="696"/>
      <point x="193" y="701"/>
      <point x="194" y="705" type="curve" smooth="yes"/>
      <point x="195" y="733"/>
      <point x="202" y="750"/>
      <point x="212" y="759" type="curve"/>
      <point x="194" y="745"/>
      <point x="180" y="716"/>
      <point x="178" y="678" type="curve" smooth="yes"/>
      <point x="173" y="590"/>
      <point x="260" y="524"/>
      <point x="274" y="503" type="curve" smooth="yes"/>
      <point x="280" y="494"/>
      <point x="282" y="487"/>
    </contour>
    <contour>
      <point x="119" y="260" type="curve" smooth="yes"/>
      <point x="202" y="261"/>
      <point x="256" y="343"/>
      <point x="274" y="339" type="curve" smooth="yes"/>
      <point x="287" y="336"/>
      <point x="287" y="319"/>
      <point x="282" y="304" type="curve"/>
      <point x="286" y="309"/>
      <point x="290" y="313"/>
      <point x="293" y="318" type="curve" smooth="yes"/>
      <point x="296" y="325"/>
      <point x="299" y="334"/>
      <point x="300" y="342" type="curve"/>
      <point x="299" y="348"/>
      <point x="296" y="353"/>
      <point x="290" y="355" type="curve" smooth="yes"/>
      <point x="272" y="359"/>
      <point x="217" y="277"/>
      <point x="135" y="275" type="curve" smooth="yes"/>
      <point x="67" y="274"/>
      <point x="26" y="312"/>
      <point x="16" y="334" type="curve" smooth="yes"/>
      <point x="16" y="334"/>
      <point x="16" y="334"/>
      <point x="16" y="334" type="curve" smooth="yes"/>
      <point x="14" y="336"/>
      <point x="13" y="339"/>
      <point x="12" y="342" type="curve" smooth="yes"/>
      <point x="6" y="360"/>
      <point x="5" y="382"/>
      <point x="13" y="398" type="curve"/>
      <point x="14" y="400"/>
      <point x="14" y="401"/>
      <point x="15" y="402" type="curve"/>
      <point x="-5" y="378"/>
      <point x="-2" y="322"/>
      <point x="7" y="305" type="curve" smooth="yes"/>
      <point x="20" y="284"/>
      <point x="51" y="259"/>
    </contour>
    <contour>
      <point x="574" y="245" type="curve" smooth="yes"/>
      <point x="551" y="263"/>
      <point x="526" y="319"/>
      <point x="509" y="302" type="curve" smooth="yes"/>
      <point x="507" y="299"/>
      <point x="505" y="294"/>
      <point x="505" y="288" type="curve"/>
      <point x="520" y="281"/>
      <point x="540" y="243"/>
      <point x="558" y="229" type="curve" smooth="yes"/>
      <point x="614" y="185"/>
      <point x="704" y="168"/>
      <point x="748" y="232" type="curve" smooth="yes"/>
      <point x="751" y="236"/>
      <point x="755" y="243"/>
      <point x="758" y="251" type="curve"/>
      <point x="757" y="248"/>
      <point x="756" y="246"/>
      <point x="755" y="245" type="curve" smooth="yes"/>
      <point x="711" y="182"/>
      <point x="629" y="201"/>
    </contour>
    <contour>
      <point x="631" y="73" type="curve" smooth="yes"/>
      <point x="563" y="54"/>
      <point x="501" y="99"/>
      <point x="486" y="161" type="curve" smooth="yes"/>
      <point x="472" y="214"/>
      <point x="451" y="259"/>
      <point x="441" y="259" type="curve" smooth="yes"/>
      <point x="426" y="259"/>
      <point x="415" y="251"/>
      <point x="406" y="238" type="curve"/>
      <point x="412" y="241"/>
      <point x="419" y="243"/>
      <point x="425" y="243" type="curve" smooth="yes"/>
      <point x="435" y="243"/>
      <point x="456" y="198"/>
      <point x="470" y="145" type="curve" smooth="yes"/>
      <point x="485" y="83"/>
      <point x="547" y="38"/>
      <point x="615" y="58" type="curve" smooth="yes"/>
      <point x="634" y="63"/>
      <point x="667" y="82"/>
      <point x="677" y="102" type="curve"/>
      <point x="669" y="89"/>
      <point x="649" y="79"/>
    </contour>
    <contour>
      <point x="304" y="61" type="curve" smooth="yes"/>
      <point x="299" y="71"/>
      <point x="297" y="81"/>
      <point x="298" y="91" type="curve"/>
      <point x="294" y="114"/>
      <point x="302" y="138"/>
      <point x="315" y="168" type="curve"/>
      <point x="291" y="116"/>
      <point x="271" y="80"/>
      <point x="288" y="45" type="curve" smooth="yes"/>
      <point x="302" y="14"/>
      <point x="347" y="-11"/>
      <point x="371" y="5" type="curve" smooth="yes"/>
      <point x="379" y="10"/>
      <point x="385" y="16"/>
      <point x="389" y="23" type="curve"/>
      <point x="388" y="22"/>
      <point x="387" y="21"/>
      <point x="386" y="21" type="curve" smooth="yes"/>
      <point x="363" y="5"/>
      <point x="318" y="30"/>
    </contour>
    <contour>
      <point x="212" y="394" type="curve" smooth="yes"/>
      <point x="222" y="392"/>
      <point x="234" y="388"/>
      <point x="237" y="379" type="curve"/>
      <point x="246" y="383"/>
      <point x="251" y="388"/>
      <point x="253" y="395" type="curve"/>
      <point x="250" y="403"/>
      <point x="238" y="408"/>
      <point x="228" y="410" type="curve" smooth="yes"/>
      <point x="113" y="424"/>
      <point x="57" y="545"/>
      <point x="49" y="573" type="curve" smooth="yes"/>
      <point x="46" y="584"/>
      <point x="45" y="595"/>
      <point x="46" y="606" type="curve"/>
      <point x="45" y="639"/>
      <point x="58" y="673"/>
      <point x="78" y="685" type="curve"/>
      <point x="47" y="678"/>
      <point x="21" y="601"/>
      <point x="34" y="557" type="curve" smooth="yes"/>
      <point x="41" y="529"/>
      <point x="98" y="408"/>
    </contour>
    <contour>
      <point x="136" y="54" type="curve" smooth="yes"/>
      <point x="107" y="54"/>
      <point x="77" y="98"/>
      <point x="85" y="140" type="curve"/>
      <point x="66" y="93"/>
      <point x="88" y="36"/>
      <point x="120" y="38" type="curve" smooth="yes"/>
      <point x="148" y="40"/>
      <point x="164" y="58"/>
      <point x="174" y="79" type="curve"/>
      <point x="165" y="65"/>
      <point x="152" y="54"/>
    </contour>
    <contour>
      <point x="331" y="247" type="curve" smooth="yes"/>
      <point x="338" y="240"/>
      <point x="341" y="228"/>
      <point x="337" y="218" type="curve" smooth="yes"/>
      <point x="337" y="218"/>
      <point x="336" y="217"/>
      <point x="336" y="216" type="curve"/>
      <point x="339" y="223"/>
      <point x="342" y="231"/>
      <point x="346" y="239" type="curve" smooth="yes"/>
      <point x="347" y="244"/>
      <point x="350" y="251"/>
      <point x="350" y="258" type="curve"/>
      <point x="349" y="260"/>
      <point x="348" y="261"/>
      <point x="347" y="262" type="curve" smooth="yes"/>
      <point x="336" y="274"/>
      <point x="263" y="222"/>
      <point x="224" y="173" type="curve"/>
      <point x="262" y="217"/>
      <point x="320" y="257"/>
    </contour>
    <contour>
      <point x="546" y="337" type="curve"/>
      <point x="601" y="345"/>
      <point x="657" y="316"/>
      <point x="712" y="341" type="curve" smooth="yes"/>
      <point x="721" y="345"/>
      <point x="729" y="350"/>
      <point x="736" y="357" type="curve" smooth="yes"/>
      <point x="772" y="394"/>
      <point x="783" y="441"/>
      <point x="770" y="483" type="curve"/>
      <point x="777" y="441"/>
      <point x="759" y="407"/>
      <point x="727" y="376" type="curve" smooth="yes"/>
      <point x="720" y="370"/>
      <point x="711" y="364"/>
      <point x="703" y="360" type="curve" smooth="yes"/>
      <point x="647" y="335"/>
      <point x="590" y="365"/>
      <point x="534" y="355" type="curve" smooth="yes"/>
      <point x="533" y="355"/>
      <point x="533" y="355"/>
      <point x="532" y="355" type="curve" smooth="yes"/>
      <point x="531" y="355"/>
      <point x="531" y="355"/>
      <point x="530" y="355" type="curve" smooth="yes"/>
      <point x="530" y="355"/>
      <point x="530" y="354"/>
      <point x="529" y="354" type="curve" smooth="yes"/>
      <point x="528" y="354"/>
      <point x="526" y="354"/>
      <point x="525" y="353" type="curve"/>
      <point x="527" y="351"/>
      <point x="529" y="349"/>
      <point x="532" y="347" type="curve" smooth="yes"/>
      <point x="537" y="344"/>
      <point x="541" y="340"/>
    </contour>
  </outline>
</glyph>
